<svg width="1600" height="752" viewBox="0 0 1600 752" fill="none" xmlns="http://www.w3.org/2000/svg">
<path d="M1525.68 583.953C1522.17 587.024 1518.79 589.779 1515.53 592.24C1504.92 602.808 1492.96 610.812 1477.1 609.579C1461.24 610.813 1449.28 602.808 1438.67 592.24C1435.41 589.779 1432.03 587.024 1428.52 583.953C1418.68 575.35 1408.79 566.074 1398.74 556.651C1347.15 508.28 1291.39 455.997 1217.89 470.629C1182.72 477.632 1169.26 496.857 1157.37 513.818C1139.61 539.199 1125.38 559.508 1047.27 526.199C937.581 479.424 935.944 481.532 900.894 526.564C894.306 535.032 886.537 545.017 876.644 556.481C856.6 579.711 842.212 601.914 829.012 622.275C801.069 665.396 778.481 700.258 718.831 719.131C649.725 740.997 597.656 756.288 576.162 750.857C554.675 756.288 502.6 740.996 433.5 719.131C373.85 700.258 351.262 665.396 323.312 622.275C310.118 601.914 295.731 579.711 275.687 556.481C265.793 545.017 258.025 535.032 251.437 526.564C216.387 481.532 214.75 479.424 105.062 526.199C26.9497 559.508 12.7246 539.199 -5.05029 513.818C-16.9253 496.857 -30.3877 477.631 -65.5627 470.629C-139.056 455.997 -194.819 508.28 -246.413 556.65L-246.419 556.661C-256.469 566.081 -266.356 575.353 -276.188 583.953C-330.3 631.287 -353.975 603.741 -376.325 577.735C-378.888 574.755 -381.431 571.794 -384 568.968L-399 323.276H-111.169V221.862L-248.669 221.861C-237.838 209.373 -200.169 174.908 -136.169 136.946C-132.669 134.871 -129.275 132.843 -125.963 130.867L-125.794 130.768C-53.4626 87.606 -21.5564 68.5687 131.331 101.979C235.481 124.744 241.644 117.87 266.356 90.322C279.612 75.5492 298.194 54.8323 340.081 29.5513C460.081 -42.8766 541.331 32.0488 611.331 101.979C628.319 118.95 643.537 130.917 657.306 139.349C658.637 138.55 659.981 137.749 661.331 136.947C664.831 134.871 668.225 132.845 671.537 130.867L671.706 130.769C744.037 87.6059 775.944 68.5687 928.831 101.979C1032.98 124.744 1039.14 117.87 1063.86 90.322C1077.11 75.5492 1095.69 54.8323 1137.58 29.5513C1255.65 -41.709 1336.21 29.6761 1405.44 98.6012C1448.88 80.8564 1496.74 78.8522 1602.58 101.979C1706.73 124.738 1712.9 117.87 1737.61 90.322C1750.86 75.5492 1769.45 54.8323 1811.33 29.5513C1931.33 -42.8766 2012.58 32.0488 2082.58 101.979C2140.74 160.077 2178.19 159.565 2207.83 159.161C2213.87 159.078 2219.58 159 2225.08 159.423V221.861H2199.46V323.276H2388.5C2390.16 455.227 2392.5 723.627 2388.5 741.609C2383.5 764.086 2323.18 746.916 2235.37 719.131C2175.72 700.258 2153.13 665.396 2125.19 622.275C2111.99 601.914 2097.61 579.711 2077.56 556.481C2067.67 545.017 2059.9 535.032 2053.31 526.564C2018.26 481.532 2016.62 479.424 1906.93 526.199C1828.82 559.508 1814.6 539.199 1796.83 513.818C1784.95 496.857 1771.48 477.632 1736.31 470.629C1662.82 455.997 1607.05 508.28 1555.46 556.651C1545.41 566.074 1535.52 575.35 1525.68 583.953Z" fill="#FAFAFC"/>
<path d="M1528.33 634.087L1516.68 609.598C1516.03 608.195 1516.13 606.652 1516.92 605.462L1531.1 581.717C1532.97 578.424 1530.45 574.634 1526.71 575.189L1499.12 578.859C1497.67 578.997 1496.17 578.573 1495.16 577.52L1476.92 557.437C1474.51 554.769 1469.86 556.093 1469.08 559.598L1463.65 586.442C1463.41 587.914 1462.41 589.174 1461.09 589.733L1435.72 601.12C1432.3 602.726 1431.98 607.353 1435.24 609.042L1459.45 621.913C1460.81 622.616 1461.54 623.879 1461.77 625.422L1464.27 652.28C1464.59 655.996 1469.09 657.616 1471.85 654.957L1492.17 635.99C1493.23 634.94 1494.83 634.522 1496.2 634.875L1523.21 640.318C1526.91 641.166 1529.9 637.385 1528.33 634.087Z" fill="url(#paint0_linear_0_1)"/>
<path d="M45.1135 292.367L46.525 295.335C46.6042 295.505 46.5911 295.691 46.4956 295.836L44.7782 298.713C44.551 299.112 44.8567 299.571 45.3093 299.504L48.6522 299.059C48.828 299.043 49.0104 299.094 49.1324 299.222L51.3423 301.655C51.6347 301.978 52.1982 301.818 52.2924 301.393L52.9505 298.14C52.9801 297.962 53.1008 297.809 53.2612 297.742L56.3354 296.362C56.7495 296.167 56.7886 295.607 56.393 295.402L53.4597 293.842C53.2948 293.757 53.2068 293.604 53.1782 293.417L52.8761 290.163C52.8374 289.712 52.2912 289.516 51.9574 289.838L49.4947 292.136C49.3662 292.264 49.1729 292.314 49.007 292.272L45.7337 291.612C45.2854 291.509 44.9231 291.967 45.1135 292.367Z" fill="url(#paint1_linear_0_1)"/>
<path d="M99.3107 442.23L100.722 445.197C100.801 445.367 100.788 445.554 100.693 445.698L98.9754 448.575C98.7483 448.974 99.054 449.434 99.5066 449.366L102.849 448.922C103.025 448.905 103.208 448.956 103.33 449.084L105.54 451.518C105.832 451.841 106.395 451.68 106.49 451.256L107.148 448.003C107.177 447.824 107.298 447.672 107.458 447.604L110.533 446.224C110.947 446.03 110.986 445.469 110.59 445.264L107.657 443.705C107.492 443.619 107.404 443.466 107.375 443.279L107.073 440.025C107.035 439.575 106.488 439.378 106.155 439.701L103.692 441.999C103.563 442.126 103.37 442.177 103.204 442.134L99.9309 441.474C99.4826 441.372 99.1204 441.83 99.3107 442.23Z" fill="url(#paint2_linear_0_1)"/>
<path d="M127.855 198.892L130.941 205.111C131.114 205.468 131.092 205.856 130.893 206.154L127.331 212.093C126.86 212.917 127.523 213.882 128.482 213.755L135.568 212.928C135.941 212.899 136.33 213.011 136.593 213.28L141.358 218.412C141.989 219.094 143.181 218.776 143.368 217.895L144.67 211.143C144.727 210.772 144.979 210.458 145.318 210.322L151.806 207.541C152.679 207.147 152.746 205.981 151.899 205.544L145.624 202.21C145.271 202.028 145.08 201.707 145.013 201.317L144.276 194.533C144.18 193.594 143.014 193.169 142.315 193.83L137.153 198.542C136.884 198.803 136.475 198.902 136.121 198.809L129.15 197.338C128.195 197.111 127.439 198.054 127.855 198.892Z" fill="url(#paint3_linear_0_1)"/>
<path d="M853.855 97.8134L856.941 104.033C857.114 104.389 857.092 104.778 856.893 105.075L853.331 111.014C852.86 111.838 853.523 112.803 854.482 112.677L861.568 111.85C861.941 111.82 862.33 111.933 862.593 112.202L867.358 117.333C867.989 118.015 869.181 117.698 869.368 116.816L870.67 110.064C870.727 109.694 870.979 109.379 871.318 109.243L877.806 106.462C878.679 106.069 878.746 104.903 877.899 104.465L871.624 101.132C871.271 100.949 871.08 100.628 871.013 100.238L870.275 93.4539C870.18 92.5152 869.014 92.0904 868.315 92.7514L863.153 97.4631C862.884 97.7242 862.475 97.8239 862.121 97.7299L855.15 96.2598C854.195 96.0328 853.439 96.9758 853.855 97.8134Z" fill="url(#paint4_linear_0_1)"/>
<path d="M850.704 392.46L852.372 395.821C852.465 396.014 852.453 396.224 852.346 396.384L850.421 399.594C850.167 400.039 850.525 400.561 851.043 400.493L854.873 400.046C855.074 400.03 855.285 400.09 855.427 400.236L858.002 403.009C858.343 403.378 858.987 403.206 859.088 402.73L859.792 399.081C859.823 398.88 859.959 398.711 860.142 398.637L863.648 397.134C864.12 396.921 864.156 396.291 863.699 396.055L860.307 394.253C860.117 394.155 860.013 393.981 859.977 393.77L859.579 390.104C859.527 389.596 858.897 389.367 858.519 389.724L855.729 392.27C855.584 392.412 855.363 392.465 855.172 392.415L851.404 391.62C850.888 391.497 850.479 392.007 850.704 392.46Z" fill="url(#paint5_linear_0_1)"/>
<path d="M639.705 621.844L641.373 625.205C641.466 625.398 641.454 625.608 641.347 625.769L639.422 628.979C639.168 629.424 639.526 629.945 640.044 629.877L643.874 629.43C644.075 629.414 644.286 629.475 644.428 629.62L647.003 632.394C647.344 632.762 647.988 632.59 648.089 632.114L648.793 628.465C648.824 628.265 648.96 628.095 649.143 628.021L652.649 626.518C653.121 626.306 653.157 625.676 652.7 625.439L649.308 623.637C649.118 623.539 649.014 623.365 648.978 623.154L648.58 619.488C648.528 618.981 647.898 618.751 647.52 619.108L644.73 621.655C644.585 621.796 644.364 621.85 644.173 621.799L640.405 621.005C639.889 620.882 639.48 621.392 639.705 621.844Z" fill="url(#paint6_linear_0_1)"/>
<g clip-path="url(#clip0_0_1)">
<path d="M1253.66 678.558L1254.04 680.595C1254.06 680.712 1254.03 680.855 1253.96 680.976L1252.6 683.375C1252.42 683.706 1252.53 684.009 1252.79 683.897L1254.72 683.104C1254.82 683.067 1254.91 683.081 1254.96 683.16L1255.86 684.686C1255.98 684.889 1256.32 684.691 1256.43 684.359L1257.24 681.824C1257.28 681.686 1257.37 681.554 1257.47 681.481L1259.37 680.023C1259.63 679.819 1259.73 679.393 1259.53 679.293L1258.11 678.523C1258.03 678.481 1258 678.378 1258.01 678.242L1258.29 675.836C1258.33 675.503 1258.05 675.43 1257.82 675.718L1256.14 677.784C1256.05 677.897 1255.93 677.962 1255.85 677.952L1254.11 677.905C1253.88 677.89 1253.61 678.284 1253.66 678.558Z" fill="url(#paint7_linear_0_1)"/>
<path opacity="0.05" d="M1254.11 677.905L1255.85 677.952C1255.94 677.948 1256.05 677.897 1256.14 677.784L1257.83 675.704C1257.97 675.53 1258.14 675.49 1258.22 675.572C1257.61 676.455 1257.68 677.963 1257.21 678.567C1256.92 678.935 1256.66 679.292 1256.51 679.622C1256.29 680.109 1256.17 680.582 1255.66 681.166C1255.29 681.592 1254.07 682.024 1253.66 682.452C1253.36 682.775 1253.23 683.113 1252.69 683.666C1252.64 683.713 1252.59 683.757 1252.54 683.786C1252.51 683.679 1252.53 683.528 1252.61 683.361L1253.96 680.976C1254.03 680.855 1254.05 680.708 1254.04 680.595L1253.66 678.558C1253.61 678.284 1253.88 677.89 1254.11 677.905Z" fill="#351656"/>
</g>
<defs>
<linearGradient id="paint0_linear_0_1" x1="1509.47" y1="565.286" x2="1463.51" y2="654.178" gradientUnits="userSpaceOnUse">
<stop stop-color="#FBB40D"/>
<stop offset="1" stop-color="#FB710D"/>
</linearGradient>
<linearGradient id="paint1_linear_0_1" x1="47.3983" y1="300.704" x2="52.9675" y2="289.933" gradientUnits="userSpaceOnUse">
<stop stop-color="#FBB40D"/>
<stop offset="1" stop-color="#FB710D"/>
</linearGradient>
<linearGradient id="paint2_linear_0_1" x1="101.596" y1="450.566" x2="107.165" y2="439.795" gradientUnits="userSpaceOnUse">
<stop stop-color="#FBB40D"/>
<stop offset="1" stop-color="#FB710D"/>
</linearGradient>
<linearGradient id="paint3_linear_0_1" x1="132.954" y1="216.315" x2="144.463" y2="194.056" gradientUnits="userSpaceOnUse">
<stop stop-color="#FBB40D"/>
<stop offset="1" stop-color="#FB710D"/>
</linearGradient>
<linearGradient id="paint4_linear_0_1" x1="858.954" y1="115.237" x2="870.463" y2="92.9778" gradientUnits="userSpaceOnUse">
<stop stop-color="#FBB40D"/>
<stop offset="1" stop-color="#FB710D"/>
</linearGradient>
<linearGradient id="paint5_linear_0_1" x1="853.46" y1="401.876" x2="859.68" y2="389.846" gradientUnits="userSpaceOnUse">
<stop stop-color="#FBB40D"/>
<stop offset="1" stop-color="#FB710D"/>
</linearGradient>
<linearGradient id="paint6_linear_0_1" x1="642.461" y1="631.26" x2="648.681" y2="619.231" gradientUnits="userSpaceOnUse">
<stop stop-color="#FBB40D"/>
<stop offset="1" stop-color="#FB710D"/>
</linearGradient>
<linearGradient id="paint7_linear_0_1" x1="1253.79" y1="684.512" x2="1258.37" y2="675.651" gradientUnits="userSpaceOnUse">
<stop stop-color="#FBB40D"/>
<stop offset="1" stop-color="#FB710D"/>
</linearGradient>
<clipPath id="clip0_0_1">
<rect width="10.3524" height="5.90446" fill="white" transform="translate(1261 677) rotate(117.341)"/>
</clipPath>
</defs>
</svg>
